<svg version="1.2" xmlns="http://www.w3.org/2000/svg" viewBox="0 0 256 256" width="256" height="256">
	<title>iStock-1460842301-ai</title>
	<style>
		.s0 { fill: #ffffff } 
		.s1 { fill: #278bc6 } 
		.s2 { fill: #063d5e } 
	</style>
	<g id="_Artboards_">
	</g>
	<g id="Layer 1">
		<path id="&lt;Path&gt;" class="s0" d="m256 0v256h-256v-256z"/>
		<g id="&lt;Group&gt;">
			<path id="&lt;Path&gt;" class="s1" d="m165.3 89.8c0-19.7-16.1-35.8-35.8-35.8-19.8 0-35.8 16.1-35.8 35.8 0 19.8 16 35.9 35.8 35.9 19.7 0 35.8-16.1 35.8-35.9z"/>
			<path id="R" fill-rule="evenodd" class="s0" d="m154.5 123.6l-5.8 3.5-8.3-22.3q-1.3-3.4-3.5-4.7-2.2-1.2-6.4-1.2h-14l-0.3 30-6.8-4.1 0.7-57.6h22.3q9 0 13.9 4.1 4.8 4.1 4.8 11.6 0 11.3-11.2 14.6 4.9 0.8 7.1 7zm-38-30.1h15.3q12.9 0 12.9-10.6 0-10.3-12.9-10.3h-15.3z"/>
			<path id="&lt;Path&gt;" class="s2" d="m119.1 9.9c-35.9 3.9-65.2 32.6-69.7 68.4-2.9 22.9 3.9 44.1 17 60.2 12.7 15.8 20.5 34.9 20.5 55.2v8.2h38v-52.7h-6.2l-2.3-12.1c-5-1.2-9.8-3.2-14.1-5.9l-10.1 7.1-13.3-13.3 7.1-10q-4-6.5-5.9-14.3l-12.1-2.2v-18.6l12-2.2c1.3-5.2 3.3-10 6-14.3l-7.1-10.1 13.3-13.2 10.1 7q6.5-4 14.1-5.8l2.3-12.2h18.7l2.1 12.2c5.1 1.2 9.9 3.1 14.3 5.8l10-7 13.3 13.2-7 10.1c2.6 4.3 4.7 9.1 5.9 14.3l12.1 2.2v18.6l-12.1 2.2c-1.2 5.2-3.3 10-5.9 14.3l7 10-13.3 13.3-10-7.1c-4.4 2.7-9.2 4.7-14.3 5.9l-2.1 12.1h-6.2v52.7h38v-7.7c0-19.6 6.2-39 19-53.8 11.9-13.9 19.1-32 19.1-51.7 0-46.7-40.4-84.1-88.2-78.8z"/>
			<path id="&lt;Path&gt;" class="s2" d="m86.9 235.4c0 6.2 5.1 11.2 11.3 11.2h59.7c6.2 0 11.2-5 11.2-11.2v-27.2h-82.2z"/>
		</g>
	</g>
</svg>